<svg xmlns="http://www.w3.org/2000/svg" viewBox="0 0 400 400">
  <defs>
    <linearGradient id="bg" x1="0" x2="1" y1="0" y2="1">
      <stop offset="0%" stop-color="#f7f6ef"/>
      <stop offset="100%" stop-color="#ece7d7"/>
    </linearGradient>
    <linearGradient id="shell" x1="0" x2="1">
      <stop offset="0%" stop-color="#8b5a35"/>
      <stop offset="100%" stop-color="#5a3418"/>
    </linearGradient>
  </defs>
  <rect width="400" height="400" rx="36" fill="url(#bg)"/>
  <ellipse cx="150" cy="232" rx="78" ry="98" fill="url(#shell)"/>
  <ellipse cx="150" cy="232" rx="70" ry="90" fill="none" stroke="#9f6b42" stroke-width="6" opacity=".45"/>
  <ellipse cx="248" cy="228" rx="88" ry="100" fill="#ffffff"/>
  <ellipse cx="248" cy="228" rx="98" ry="110" fill="none" stroke="#6c4423" stroke-width="18"/>
  <ellipse cx="248" cy="228" rx="88" ry="100" fill="none" stroke="#f1f5ef" stroke-width="6"/>
  <circle cx="126" cy="214" r="7" fill="#3e2410"/>
  <circle cx="152" cy="196" r="7" fill="#3e2410"/>
  <circle cx="164" cy="227" r="7" fill="#3e2410"/>
  <path d="M225 124c18-46 41-72 70-80" stroke="#49a55d" stroke-width="12" stroke-linecap="round"/>
  <path d="M246 126c0-42 12-77 36-103" stroke="#62bb74" stroke-width="10" stroke-linecap="round"/>
  <path d="M270 130c22-29 48-47 80-54" stroke="#3d8d51" stroke-width="10" stroke-linecap="round"/>
</svg>
