<svg xmlns="http://www.w3.org/2000/svg" viewBox="0 0 400 400">
  <defs>
    <linearGradient id="bg" x1="0" x2="1" y1="0" y2="1">
      <stop offset="0%" stop-color="#fdf7f4"/>
      <stop offset="100%" stop-color="#f8ebe5"/>
    </linearGradient>
    <radialGradient id="tomato" cx="50%" cy="40%" r="55%">
      <stop offset="0%" stop-color="#ff8a7b"/>
      <stop offset="65%" stop-color="#e74b3c"/>
      <stop offset="100%" stop-color="#bf2d21"/>
    </radialGradient>
  </defs>
  <rect width="400" height="400" rx="36" fill="url(#bg)"/>
  <ellipse cx="200" cy="230" rx="118" ry="108" fill="url(#tomato)"/>
  <ellipse cx="158" cy="182" rx="34" ry="24" fill="#ffb1a6" opacity=".35"/>
  <path d="M200 116c16 0 29-8 39-22 5 13 17 24 35 31-20 4-31 13-34 28-10-8-23-12-40-12-17 0-30 4-40 12-3-15-14-24-34-28 18-7 30-18 35-31 10 14 23 22 39 22z" fill="#2f8f43"/>
  <path d="M200 90c-6 15-6 29 1 43" stroke="#1f6a33" stroke-width="9" stroke-linecap="round"/>
</svg>
